<svg xmlns="http://www.w3.org/2000/svg" xmlns:xlink="http://www.w3.org/1999/xlink" width="500" zoomAndPan="magnify" viewBox="0 0 375 374.999991" height="500" preserveAspectRatio="xMidYMid meet" version="1.0"><defs><g/><clipPath id="9996d64a9e"><path d="M 170 108.664062 L 205 108.664062 L 205 133 L 170 133 Z M 170 108.664062 " clip-rule="nonzero"/></clipPath></defs><rect x="-37.5" width="450" fill="#ffffff" y="-37.499999" height="449.999989" fill-opacity="1"/><rect x="-37.5" width="450" fill="#ffffff" y="-37.499999" height="449.999989" fill-opacity="1"/><rect x="-37.5" width="450" fill="#ffffff" y="-37.499999" height="449.999989" fill-opacity="1"/><path stroke-linecap="round" transform="matrix(4.198415, 0, 0, 4.19837, 139.373388, 93.549786)" fill="none" stroke-linejoin="round" d="M 16.099279 16.011847 L 11.476999 9.190002 L 6.858441 16.011847 " stroke="#000000" stroke-width="1" stroke-opacity="1" stroke-miterlimit="4"/><g clip-path="url(#9996d64a9e)"><path stroke-linecap="round" transform="matrix(4.198415, 0, 0, 4.19837, 139.373388, 93.549786)" fill="none" stroke-linejoin="round" d="M 15.029307 8.860633 L 11.476999 4.113627 L 7.929343 8.860633 " stroke="#000000" stroke-width="1" stroke-opacity="1" stroke-miterlimit="4"/></g><path stroke-linecap="round" transform="matrix(4.198415, 0, 0, 4.19837, 139.373388, 93.549786)" fill="none" stroke-linejoin="round" d="M 11.476999 9.190002 L 2.894891 8.386119 L 6.858441 16.011847 " stroke="#000000" stroke-width="1" stroke-opacity="1" stroke-miterlimit="4"/><path stroke-linecap="round" transform="matrix(4.198415, 0, 0, 4.19837, 139.373388, 93.549786)" fill="none" stroke-linejoin="round" d="M 11.476999 9.190002 L 20.061898 8.386119 L 16.099279 16.011847 " stroke="#000000" stroke-width="1" stroke-opacity="1" stroke-miterlimit="4"/><path stroke-linecap="round" transform="matrix(4.198415, 0, 0, 4.19837, 139.373388, 93.549786)" fill="none" stroke-linejoin="round" d="M 8.051227 15.152138 C 7.938648 15.262858 7.821416 15.368926 7.698602 15.468481 C 7.575787 15.568036 7.448321 15.662009 7.317133 15.749468 C 7.185015 15.836928 7.049175 15.917874 6.909613 15.991378 C 6.770052 16.065811 6.626769 16.132802 6.480694 16.193279 C 6.33462 16.252826 6.185754 16.30586 6.034097 16.35145 C 5.88244 16.397041 5.729853 16.435188 5.574474 16.465892 C 5.419095 16.496596 5.262787 16.519857 5.105547 16.535674 C 4.948308 16.55056 4.791068 16.558004 4.632899 16.558004 C 4.474729 16.558004 4.316559 16.55056 4.159319 16.535674 C 4.00208 16.519857 3.845771 16.496596 3.690393 16.465892 C 3.535014 16.435188 3.382427 16.397041 3.23077 16.35145 C 3.079113 16.30586 2.930247 16.252826 2.784173 16.193279 C 2.638098 16.132802 2.494815 16.065811 2.355253 15.991378 C 2.215692 15.917874 2.079852 15.836928 1.947733 15.749468 C 1.816545 15.662009 1.689079 15.568036 1.566265 15.468481 C 1.443451 15.368926 1.326219 15.262858 1.213639 15.152138 " stroke="#000000" stroke-width="1" stroke-opacity="1" stroke-miterlimit="4"/><path stroke-linecap="round" transform="matrix(4.198415, 0, 0, 4.19837, 139.373388, 93.549786)" fill="none" stroke-linejoin="round" d="M 14.907423 15.152138 C 14.793913 15.262858 14.676681 15.368926 14.552937 15.468481 C 14.430123 15.568036 14.302656 15.662009 14.170538 15.749468 C 14.037489 15.836928 13.901649 15.917874 13.762088 15.991378 C 13.621596 16.065811 13.478312 16.132802 13.331308 16.193279 C 13.185233 16.252826 13.035437 16.30586 12.88378 16.35145 C 12.732123 16.397041 12.578605 16.435188 12.423227 16.465892 C 12.267848 16.496596 12.110609 16.519857 11.953369 16.535674 C 11.7952 16.55056 11.63703 16.558004 11.47886 16.558004 C 11.32069 16.558004 11.16252 16.55056 11.004351 16.535674 C 10.847111 16.519857 10.690802 16.496596 10.534493 16.465892 C 10.379115 16.435188 10.225597 16.397041 10.07394 16.35145 C 9.922283 16.30586 9.773417 16.252826 9.626412 16.193279 C 9.479408 16.132802 9.336124 16.065811 9.196563 15.991378 C 9.056071 15.917874 8.920231 15.836928 8.788112 15.749468 C 8.655994 15.662009 8.527597 15.568036 8.404783 15.468481 C 8.281969 15.368926 8.163807 15.262858 8.051227 15.152138 " stroke="#000000" stroke-width="1" stroke-opacity="1" stroke-miterlimit="4"/><path stroke-linecap="round" transform="matrix(4.198415, 0, 0, 4.19837, 139.373388, 93.549786)" fill="none" stroke-linejoin="round" d="M 21.744081 15.152138 C 21.631501 15.262858 21.514269 15.368926 21.391455 15.468481 C 21.268641 15.568036 21.141175 15.662009 21.009987 15.749468 C 20.877868 15.836928 20.742028 15.917874 20.602467 15.991378 C 20.462905 16.065811 20.319622 16.132802 20.173547 16.193279 C 20.027473 16.252826 19.878607 16.30586 19.72695 16.35145 C 19.576224 16.397041 19.422706 16.435188 19.267327 16.465892 C 19.111949 16.496596 18.95657 16.519857 18.798401 16.535674 C 18.641161 16.55056 18.483922 16.558004 18.325752 16.558004 C 18.167582 16.558004 18.009412 16.55056 17.852173 16.535674 C 17.694934 16.519857 17.538625 16.496596 17.383246 16.465892 C 17.228798 16.435188 17.07528 16.397041 16.923623 16.35145 C 16.771966 16.30586 16.6231 16.252826 16.477026 16.193279 C 16.330952 16.132802 16.187668 16.065811 16.048107 15.991378 C 15.908545 15.917874 15.772705 15.836928 15.641517 15.749468 C 15.509399 15.662009 15.381933 15.568036 15.259118 15.468481 C 15.137235 15.368926 15.019073 15.262858 14.907423 15.152138 " stroke="#000000" stroke-width="1" stroke-opacity="1" stroke-miterlimit="4"/><path stroke-linecap="round" transform="matrix(4.198415, 0, 0, 4.19837, 139.373388, 93.549786)" fill="none" stroke-linejoin="round" d="M 8.051227 19.610714 C 7.938648 19.722365 7.821416 19.827502 7.698602 19.927057 C 7.575787 20.027543 7.448321 20.120585 7.317133 20.208044 C 7.185015 20.295504 7.049175 20.37645 6.909613 20.449954 C 6.770052 20.524387 6.626769 20.591377 6.480694 20.651855 C 6.33462 20.711402 6.185754 20.764436 6.034097 20.810026 C 5.88244 20.855617 5.729853 20.893764 5.574474 20.924468 C 5.419095 20.955172 5.262787 20.978432 5.105547 20.993319 C 4.948308 21.009136 4.791068 21.01658 4.632899 21.01658 C 4.474729 21.01658 4.316559 21.009136 4.159319 20.993319 C 4.00208 20.978432 3.845771 20.955172 3.690393 20.924468 C 3.535944 20.893764 3.382427 20.855617 3.23077 20.810026 C 3.079113 20.764436 2.930247 20.711402 2.784173 20.651855 C 2.638098 20.591377 2.494815 20.524387 2.355253 20.449954 C 2.215692 20.37645 2.079852 20.295504 1.948664 20.208044 C 1.816545 20.120585 1.689079 20.027543 1.566265 19.927057 C 1.443451 19.827502 1.326219 19.722365 1.213639 19.610714 " stroke="#000000" stroke-width="1" stroke-opacity="1" stroke-miterlimit="4"/><path stroke-linecap="round" transform="matrix(4.198415, 0, 0, 4.19837, 139.373388, 93.549786)" fill="none" stroke-linejoin="round" d="M 14.907423 19.610714 C 14.793913 19.722365 14.675751 19.827502 14.552937 19.927057 C 14.430123 20.027543 14.302656 20.120585 14.169608 20.208044 C 14.037489 20.295504 13.901649 20.37645 13.761157 20.449954 C 13.621596 20.524387 13.478312 20.591377 13.331308 20.651855 C 13.185233 20.711402 13.035437 20.764436 12.88378 20.810026 C 12.732123 20.855617 12.578605 20.893764 12.423227 20.924468 C 12.267848 20.955172 12.110609 20.978432 11.953369 20.993319 C 11.7952 21.009136 11.63703 21.01658 11.47886 21.01658 C 11.32069 21.01658 11.16252 21.009136 11.004351 20.993319 C 10.847111 20.978432 10.690802 20.955172 10.534493 20.924468 C 10.379115 20.893764 10.225597 20.855617 10.07394 20.810026 C 9.922283 20.764436 9.773417 20.711402 9.626412 20.651855 C 9.480338 20.591377 9.336124 20.524387 9.196563 20.449954 C 9.056071 20.37645 8.920231 20.295504 8.788112 20.208044 C 8.655994 20.120585 8.528528 20.027543 8.404783 19.927057 C 8.281969 19.827502 8.163807 19.722365 8.051227 19.610714 " stroke="#000000" stroke-width="1" stroke-opacity="1" stroke-miterlimit="4"/><path stroke-linecap="round" transform="matrix(4.198415, 0, 0, 4.19837, 139.373388, 93.549786)" fill="none" stroke-linejoin="round" d="M 21.744081 19.610714 C 21.631501 19.722365 21.514269 19.827502 21.391455 19.927057 C 21.268641 20.027543 21.141175 20.120585 21.009987 20.208044 C 20.877868 20.295504 20.742028 20.37645 20.602467 20.449954 C 20.462905 20.524387 20.319622 20.591377 20.173547 20.651855 C 20.027473 20.711402 19.878607 20.764436 19.72695 20.810026 C 19.576224 20.855617 19.422706 20.893764 19.267327 20.924468 C 19.111949 20.955172 18.95564 20.978432 18.798401 20.993319 C 18.641161 21.009136 18.483922 21.01658 18.325752 21.01658 C 18.167582 21.01658 18.009412 21.009136 17.852173 20.993319 C 17.694934 20.978432 17.538625 20.955172 17.383246 20.924468 C 17.228798 20.893764 17.07528 20.855617 16.923623 20.810026 C 16.772897 20.764436 16.624031 20.711402 16.477026 20.651855 C 16.330952 20.591377 16.188599 20.524387 16.048107 20.449954 C 15.908545 20.37645 15.772705 20.295504 15.641517 20.208044 C 15.509399 20.120585 15.381933 20.027543 15.260049 19.927057 C 15.137235 19.827502 15.019073 19.722365 14.907423 19.610714 " stroke="#000000" stroke-width="1" stroke-opacity="1" stroke-miterlimit="4"/><g fill="#000000" fill-opacity="1"><g transform="translate(100.266238, 231.451523)"><g><path d="M 22.078125 -26.328125 C 22.628906 -26.328125 23.078125 -26.15625 23.421875 -25.8125 C 23.773438 -25.476562 23.953125 -25.046875 23.953125 -24.515625 L 23.953125 -1.84375 C 23.929688 -1.3125 23.742188 -0.867188 23.390625 -0.515625 C 23.035156 -0.171875 22.585938 0 22.046875 0 C 21.535156 0 21.097656 -0.171875 20.734375 -0.515625 C 20.378906 -0.867188 20.203125 -1.3125 20.203125 -1.84375 L 20.203125 -11.578125 L 6.84375 -11.578125 L 6.84375 -1.84375 C 6.84375 -1.3125 6.65625 -0.867188 6.28125 -0.515625 C 5.90625 -0.171875 5.46875 0 4.96875 0 C 4.414062 0 3.96875 -0.171875 3.625 -0.515625 C 3.289062 -0.867188 3.125 -1.3125 3.125 -1.84375 L 3.125 -24.515625 C 3.125 -25.023438 3.296875 -25.453125 3.640625 -25.796875 C 3.992188 -26.148438 4.445312 -26.328125 5 -26.328125 C 5.5 -26.328125 5.929688 -26.148438 6.296875 -25.796875 C 6.660156 -25.453125 6.84375 -25.023438 6.84375 -24.515625 L 6.84375 -15.046875 L 20.203125 -15.046875 L 20.203125 -24.515625 C 20.203125 -25.023438 20.390625 -25.453125 20.765625 -25.796875 C 21.140625 -26.148438 21.578125 -26.328125 22.078125 -26.328125 Z M 22.078125 -26.328125 "/></g></g></g><g fill="#000000" fill-opacity="1"><g transform="translate(131.094187, 231.451523)"><g><path d="M 23.359375 -2.328125 C 23.429688 -2.109375 23.46875 -1.875 23.46875 -1.625 C 23.46875 -1.113281 23.296875 -0.695312 22.953125 -0.375 C 22.617188 -0.0507812 22.226562 0.109375 21.78125 0.109375 C 21.425781 0.109375 21.101562 0.00390625 20.8125 -0.203125 C 20.53125 -0.421875 20.300781 -0.71875 20.125 -1.09375 L 17.796875 -6.625 L 6.171875 -6.625 L 3.875 -1.046875 C 3.75 -0.671875 3.539062 -0.382812 3.25 -0.1875 C 2.96875 0.0078125 2.648438 0.109375 2.296875 0.109375 C 1.765625 0.109375 1.359375 -0.0234375 1.078125 -0.296875 C 0.804688 -0.578125 0.671875 -0.953125 0.671875 -1.421875 C 0.671875 -1.523438 0.695312 -1.726562 0.75 -2.03125 L 10.34375 -25.28125 C 10.519531 -25.675781 10.765625 -25.976562 11.078125 -26.1875 C 11.390625 -26.40625 11.742188 -26.488281 12.140625 -26.4375 C 12.523438 -26.4375 12.863281 -26.335938 13.15625 -26.140625 C 13.457031 -25.941406 13.671875 -25.65625 13.796875 -25.28125 Z M 7.59375 -10.046875 L 16.359375 -10.046875 L 11.953125 -20.578125 Z M 7.59375 -10.046875 "/></g></g></g><g fill="#000000" fill-opacity="1"><g transform="translate(159.027423, 231.451523)"><g><path d="M 23.171875 -3.015625 C 23.421875 -2.835938 23.617188 -2.613281 23.765625 -2.34375 C 23.921875 -2.082031 24 -1.816406 24 -1.546875 C 24 -1.015625 23.828125 -0.625 23.484375 -0.375 C 23.148438 -0.125 22.742188 0 22.265625 0 C 21.785156 0 21.382812 -0.0976562 21.0625 -0.296875 C 20.3125 -0.722656 19.695312 -1.410156 19.21875 -2.359375 C 18.738281 -3.316406 18.5 -4.722656 18.5 -6.578125 C 18.5 -7.835938 18.125 -8.765625 17.375 -9.359375 C 16.625 -9.960938 15.644531 -10.265625 14.4375 -10.265625 L 6.84375 -10.265625 L 6.84375 -1.8125 C 6.84375 -1.28125 6.691406 -0.84375 6.390625 -0.5 C 6.085938 -0.164062 5.703125 0 5.234375 0 C 4.648438 0 4.148438 -0.171875 3.734375 -0.515625 C 3.328125 -0.867188 3.125 -1.300781 3.125 -1.8125 L 3.125 -24.515625 C 3.125 -25.023438 3.296875 -25.453125 3.640625 -25.796875 C 3.992188 -26.148438 4.421875 -26.328125 4.921875 -26.328125 L 15.5 -26.328125 C 16.851562 -26.328125 18.09375 -25.992188 19.21875 -25.328125 C 20.34375 -24.660156 21.242188 -23.742188 21.921875 -22.578125 C 22.597656 -21.410156 22.9375 -20.101562 22.9375 -18.65625 C 22.9375 -17.25 22.5625 -15.9375 21.8125 -14.71875 C 21.0625 -13.507812 20.097656 -12.601562 18.921875 -12 C 19.847656 -11.519531 20.578125 -10.851562 21.109375 -10 C 21.648438 -9.144531 21.945312 -8.15625 22 -7.03125 C 22.101562 -5.601562 22.21875 -4.628906 22.34375 -4.109375 C 22.46875 -3.597656 22.742188 -3.234375 23.171875 -3.015625 Z M 15.421875 -13.390625 C 16.046875 -13.441406 16.640625 -13.691406 17.203125 -14.140625 C 17.765625 -14.585938 18.222656 -15.191406 18.578125 -15.953125 C 18.929688 -16.722656 19.109375 -17.585938 19.109375 -18.546875 C 19.109375 -19.742188 18.738281 -20.757812 18 -21.59375 C 17.257812 -22.4375 16.363281 -22.859375 15.3125 -22.859375 L 6.84375 -22.859375 L 6.84375 -13.390625 Z M 15.421875 -13.390625 "/></g></g></g><g fill="#000000" fill-opacity="1"><g transform="translate(188.389212, 231.451523)"><g><path d="M 18.203125 -14.359375 C 19.578125 -13.890625 20.707031 -13.109375 21.59375 -12.015625 C 22.488281 -10.921875 22.9375 -9.5 22.9375 -7.75 C 22.9375 -4.96875 22.128906 -2.976562 20.515625 -1.78125 C 18.898438 -0.59375 16.925781 0 14.59375 0 L 4.921875 0 C 4.421875 0 3.992188 -0.171875 3.640625 -0.515625 C 3.296875 -0.867188 3.125 -1.300781 3.125 -1.8125 L 3.125 -24.515625 C 3.125 -25.023438 3.296875 -25.453125 3.640625 -25.796875 C 3.992188 -26.148438 4.421875 -26.328125 4.921875 -26.328125 L 14.59375 -26.328125 C 16.875 -26.328125 18.609375 -25.757812 19.796875 -24.625 C 20.992188 -23.5 21.59375 -21.875 21.59375 -19.75 C 21.59375 -18.539062 21.300781 -17.46875 20.71875 -16.53125 C 20.144531 -15.59375 19.304688 -14.867188 18.203125 -14.359375 Z M 17.71875 -19.1875 C 17.71875 -20.363281 17.394531 -21.257812 16.75 -21.875 C 16.113281 -22.488281 15.21875 -22.796875 14.0625 -22.796875 L 6.953125 -22.796875 L 6.953125 -15.453125 L 14.140625 -15.453125 C 15.171875 -15.484375 16.023438 -15.816406 16.703125 -16.453125 C 17.378906 -17.085938 17.71875 -18 17.71875 -19.1875 Z M 14.5625 -3.453125 C 15.9375 -3.453125 17.035156 -3.8125 17.859375 -4.53125 C 18.691406 -5.25 19.109375 -6.320312 19.109375 -7.75 C 19.109375 -10.53125 17.523438 -11.921875 14.359375 -11.921875 L 6.953125 -11.921875 L 6.953125 -3.453125 Z M 14.5625 -3.453125 "/></g></g></g><g fill="#000000" fill-opacity="1"><g transform="translate(216.735979, 231.451523)"><g><path d="M 27.046875 -13.15625 C 27.046875 -10.625 26.5 -8.332031 25.40625 -6.28125 C 24.3125 -4.226562 22.800781 -2.601562 20.875 -1.40625 C 18.945312 -0.21875 16.765625 0.375 14.328125 0.375 C 11.898438 0.375 9.71875 -0.21875 7.78125 -1.40625 C 5.851562 -2.601562 4.34375 -4.226562 3.25 -6.28125 C 2.164062 -8.332031 1.625 -10.625 1.625 -13.15625 C 1.625 -15.695312 2.164062 -17.992188 3.25 -20.046875 C 4.34375 -22.097656 5.851562 -23.71875 7.78125 -24.90625 C 9.71875 -26.101562 11.898438 -26.703125 14.328125 -26.703125 C 16.765625 -26.703125 18.945312 -26.101562 20.875 -24.90625 C 22.800781 -23.71875 24.3125 -22.097656 25.40625 -20.046875 C 26.5 -17.992188 27.046875 -15.695312 27.046875 -13.15625 Z M 23.171875 -13.15625 C 23.171875 -15.039062 22.789062 -16.738281 22.03125 -18.25 C 21.28125 -19.769531 20.234375 -20.960938 18.890625 -21.828125 C 17.554688 -22.691406 16.035156 -23.125 14.328125 -23.125 C 12.617188 -23.125 11.09375 -22.695312 9.75 -21.84375 C 8.414062 -21 7.367188 -19.816406 6.609375 -18.296875 C 5.859375 -16.773438 5.484375 -15.0625 5.484375 -13.15625 C 5.484375 -11.28125 5.859375 -9.582031 6.609375 -8.0625 C 7.367188 -6.550781 8.414062 -5.363281 9.75 -4.5 C 11.09375 -3.632812 12.617188 -3.203125 14.328125 -3.203125 C 16.035156 -3.203125 17.554688 -3.632812 18.890625 -4.5 C 20.234375 -5.363281 21.28125 -6.550781 22.03125 -8.0625 C 22.789062 -9.582031 23.171875 -11.28125 23.171875 -13.15625 Z M 23.171875 -13.15625 "/></g></g></g><g fill="#000000" fill-opacity="1"><g transform="translate(249.180458, 231.451523)"><g><path d="M 23.171875 -3.015625 C 23.421875 -2.835938 23.617188 -2.613281 23.765625 -2.34375 C 23.921875 -2.082031 24 -1.816406 24 -1.546875 C 24 -1.015625 23.828125 -0.625 23.484375 -0.375 C 23.148438 -0.125 22.742188 0 22.265625 0 C 21.785156 0 21.382812 -0.0976562 21.0625 -0.296875 C 20.3125 -0.722656 19.695312 -1.410156 19.21875 -2.359375 C 18.738281 -3.316406 18.5 -4.722656 18.5 -6.578125 C 18.5 -7.835938 18.125 -8.765625 17.375 -9.359375 C 16.625 -9.960938 15.644531 -10.265625 14.4375 -10.265625 L 6.84375 -10.265625 L 6.84375 -1.8125 C 6.84375 -1.28125 6.691406 -0.84375 6.390625 -0.5 C 6.085938 -0.164062 5.703125 0 5.234375 0 C 4.648438 0 4.148438 -0.171875 3.734375 -0.515625 C 3.328125 -0.867188 3.125 -1.300781 3.125 -1.8125 L 3.125 -24.515625 C 3.125 -25.023438 3.296875 -25.453125 3.640625 -25.796875 C 3.992188 -26.148438 4.421875 -26.328125 4.921875 -26.328125 L 15.5 -26.328125 C 16.851562 -26.328125 18.09375 -25.992188 19.21875 -25.328125 C 20.34375 -24.660156 21.242188 -23.742188 21.921875 -22.578125 C 22.597656 -21.410156 22.9375 -20.101562 22.9375 -18.65625 C 22.9375 -17.25 22.5625 -15.9375 21.8125 -14.71875 C 21.0625 -13.507812 20.097656 -12.601562 18.921875 -12 C 19.847656 -11.519531 20.578125 -10.851562 21.109375 -10 C 21.648438 -9.144531 21.945312 -8.15625 22 -7.03125 C 22.101562 -5.601562 22.21875 -4.628906 22.34375 -4.109375 C 22.46875 -3.597656 22.742188 -3.234375 23.171875 -3.015625 Z M 15.421875 -13.390625 C 16.046875 -13.441406 16.640625 -13.691406 17.203125 -14.140625 C 17.765625 -14.585938 18.222656 -15.191406 18.578125 -15.953125 C 18.929688 -16.722656 19.109375 -17.585938 19.109375 -18.546875 C 19.109375 -19.742188 18.738281 -20.757812 18 -21.59375 C 17.257812 -22.4375 16.363281 -22.859375 15.3125 -22.859375 L 6.84375 -22.859375 L 6.84375 -13.390625 Z M 15.421875 -13.390625 "/></g></g></g><g fill="#000000" fill-opacity="1"><g transform="translate(146.931495, 261.964027)"><g><path d="M 9.46875 -10.734375 C 9.726562 -10.585938 9.859375 -10.367188 9.859375 -10.078125 C 9.859375 -9.878906 9.796875 -9.703125 9.671875 -9.546875 C 9.535156 -9.367188 9.359375 -9.28125 9.140625 -9.28125 C 8.984375 -9.28125 8.832031 -9.316406 8.6875 -9.390625 C 8.019531 -9.773438 7.296875 -9.96875 6.515625 -9.96875 C 5.703125 -9.96875 4.984375 -9.785156 4.359375 -9.421875 C 3.734375 -9.066406 3.242188 -8.566406 2.890625 -7.921875 C 2.546875 -7.273438 2.375 -6.535156 2.375 -5.703125 C 2.375 -4.796875 2.550781 -4.015625 2.90625 -3.359375 C 3.269531 -2.710938 3.765625 -2.21875 4.390625 -1.875 C 5.023438 -1.539062 5.734375 -1.375 6.515625 -1.375 C 7.316406 -1.375 8.039062 -1.566406 8.6875 -1.953125 C 8.820312 -2.015625 8.96875 -2.046875 9.125 -2.046875 C 9.351562 -2.046875 9.539062 -1.957031 9.6875 -1.78125 C 9.8125 -1.613281 9.875 -1.4375 9.875 -1.25 C 9.875 -1.125 9.835938 -1.003906 9.765625 -0.890625 C 9.703125 -0.773438 9.609375 -0.6875 9.484375 -0.625 C 9.066406 -0.382812 8.59375 -0.191406 8.0625 -0.046875 C 7.539062 0.0859375 7.023438 0.15625 6.515625 0.15625 C 5.460938 0.15625 4.492188 -0.0703125 3.609375 -0.53125 C 2.722656 -1 2.015625 -1.675781 1.484375 -2.5625 C 0.960938 -3.457031 0.703125 -4.503906 0.703125 -5.703125 C 0.703125 -6.796875 0.953125 -7.785156 1.453125 -8.671875 C 1.960938 -9.554688 2.660156 -10.25 3.546875 -10.75 C 4.429688 -11.257812 5.421875 -11.515625 6.515625 -11.515625 C 7.566406 -11.515625 8.550781 -11.253906 9.46875 -10.734375 Z M 9.46875 -10.734375 "/></g></g></g><g fill="#000000" fill-opacity="1"><g transform="translate(158.953215, 261.964027)"><g><path d="M 7.640625 -1.515625 C 7.867188 -1.515625 8.054688 -1.441406 8.203125 -1.296875 C 8.347656 -1.160156 8.421875 -0.976562 8.421875 -0.75 C 8.421875 -0.53125 8.347656 -0.347656 8.203125 -0.203125 C 8.054688 -0.0664062 7.867188 0 7.640625 0 L 2.140625 0 C 1.910156 0 1.71875 -0.0703125 1.5625 -0.21875 C 1.414062 -0.375 1.34375 -0.5625 1.34375 -0.78125 L 1.34375 -10.609375 C 1.34375 -10.828125 1.421875 -11.007812 1.578125 -11.15625 C 1.734375 -11.3125 1.929688 -11.390625 2.171875 -11.390625 C 2.378906 -11.390625 2.5625 -11.3125 2.71875 -11.15625 C 2.882812 -11.007812 2.96875 -10.828125 2.96875 -10.609375 L 2.96875 -1.515625 Z M 7.640625 -1.515625 "/></g></g></g><g fill="#000000" fill-opacity="1"><g transform="translate(169.543565, 261.964027)"><g><path d="M 7.796875 -1.5 C 8.023438 -1.5 8.210938 -1.421875 8.359375 -1.265625 C 8.503906 -1.117188 8.578125 -0.941406 8.578125 -0.734375 C 8.578125 -0.515625 8.503906 -0.335938 8.359375 -0.203125 C 8.210938 -0.0664062 8.023438 0 7.796875 0 L 2.140625 0 C 1.921875 0 1.734375 -0.0703125 1.578125 -0.21875 C 1.421875 -0.375 1.34375 -0.5625 1.34375 -0.78125 L 1.34375 -10.609375 C 1.34375 -10.828125 1.421875 -11.007812 1.578125 -11.15625 C 1.734375 -11.3125 1.921875 -11.390625 2.140625 -11.390625 L 7.796875 -11.390625 C 8.023438 -11.390625 8.210938 -11.316406 8.359375 -11.171875 C 8.503906 -11.035156 8.578125 -10.851562 8.578125 -10.625 C 8.578125 -10.414062 8.503906 -10.242188 8.359375 -10.109375 C 8.210938 -9.972656 8.023438 -9.90625 7.796875 -9.90625 L 2.96875 -9.90625 L 2.96875 -6.578125 L 7.0625 -6.578125 C 7.289062 -6.578125 7.476562 -6.503906 7.625 -6.359375 C 7.769531 -6.222656 7.84375 -6.046875 7.84375 -5.828125 C 7.84375 -5.597656 7.769531 -5.414062 7.625 -5.28125 C 7.476562 -5.15625 7.289062 -5.09375 7.0625 -5.09375 L 2.96875 -5.09375 L 2.96875 -1.5 Z M 7.796875 -1.5 "/></g></g></g><g fill="#000000" fill-opacity="1"><g transform="translate(180.459226, 261.964027)"><g><path d="M 10.109375 -1.015625 C 10.140625 -0.910156 10.15625 -0.804688 10.15625 -0.703125 C 10.15625 -0.484375 10.082031 -0.300781 9.9375 -0.15625 C 9.789062 -0.0195312 9.617188 0.046875 9.421875 0.046875 C 9.273438 0.046875 9.140625 0 9.015625 -0.09375 C 8.890625 -0.1875 8.785156 -0.3125 8.703125 -0.46875 L 7.703125 -2.859375 L 2.671875 -2.859375 L 1.671875 -0.453125 C 1.617188 -0.296875 1.53125 -0.171875 1.40625 -0.078125 C 1.28125 0.00390625 1.144531 0.046875 1 0.046875 C 0.769531 0.046875 0.59375 -0.0078125 0.46875 -0.125 C 0.351562 -0.25 0.296875 -0.414062 0.296875 -0.625 C 0.296875 -0.664062 0.304688 -0.75 0.328125 -0.875 L 4.484375 -10.9375 C 4.554688 -11.113281 4.660156 -11.25 4.796875 -11.34375 C 4.929688 -11.4375 5.085938 -11.472656 5.265625 -11.453125 C 5.421875 -11.453125 5.5625 -11.40625 5.6875 -11.3125 C 5.820312 -11.226562 5.914062 -11.101562 5.96875 -10.9375 Z M 3.28125 -4.34375 L 7.078125 -4.34375 L 5.171875 -8.90625 Z M 3.28125 -4.34375 "/></g></g></g><g fill="#000000" fill-opacity="1"><g transform="translate(192.546017, 261.964027)"><g><path d="M 9.859375 -11.390625 C 10.066406 -11.390625 10.234375 -11.320312 10.359375 -11.1875 C 10.492188 -11.050781 10.5625 -10.882812 10.5625 -10.6875 L 10.5625 -0.796875 C 10.5625 -0.566406 10.488281 -0.375 10.34375 -0.21875 C 10.195312 -0.0703125 10.007812 0 9.78125 0 C 9.664062 0 9.550781 -0.015625 9.4375 -0.046875 C 9.320312 -0.0859375 9.234375 -0.148438 9.171875 -0.234375 L 2.765625 -8.5625 L 2.765625 -0.71875 C 2.765625 -0.507812 2.695312 -0.335938 2.5625 -0.203125 C 2.425781 -0.0664062 2.253906 0 2.046875 0 C 1.835938 0 1.664062 -0.0664062 1.53125 -0.203125 C 1.40625 -0.335938 1.34375 -0.507812 1.34375 -0.71875 L 1.34375 -10.609375 C 1.34375 -10.835938 1.414062 -11.023438 1.5625 -11.171875 C 1.71875 -11.316406 1.898438 -11.390625 2.109375 -11.390625 C 2.242188 -11.390625 2.367188 -11.363281 2.484375 -11.3125 C 2.609375 -11.269531 2.703125 -11.207031 2.765625 -11.125 L 9.15625 -2.765625 L 9.15625 -10.6875 C 9.15625 -10.882812 9.222656 -11.050781 9.359375 -11.1875 C 9.492188 -11.320312 9.660156 -11.390625 9.859375 -11.390625 Z M 9.859375 -11.390625 "/></g></g></g><g fill="#000000" fill-opacity="1"><g transform="translate(206.096713, 261.964027)"><g><path d="M 7.796875 -1.5 C 8.023438 -1.5 8.210938 -1.421875 8.359375 -1.265625 C 8.503906 -1.117188 8.578125 -0.941406 8.578125 -0.734375 C 8.578125 -0.515625 8.503906 -0.335938 8.359375 -0.203125 C 8.210938 -0.0664062 8.023438 0 7.796875 0 L 2.140625 0 C 1.921875 0 1.734375 -0.0703125 1.578125 -0.21875 C 1.421875 -0.375 1.34375 -0.5625 1.34375 -0.78125 L 1.34375 -10.609375 C 1.34375 -10.828125 1.421875 -11.007812 1.578125 -11.15625 C 1.734375 -11.3125 1.921875 -11.390625 2.140625 -11.390625 L 7.796875 -11.390625 C 8.023438 -11.390625 8.210938 -11.316406 8.359375 -11.171875 C 8.503906 -11.035156 8.578125 -10.851562 8.578125 -10.625 C 8.578125 -10.414062 8.503906 -10.242188 8.359375 -10.109375 C 8.210938 -9.972656 8.023438 -9.90625 7.796875 -9.90625 L 2.96875 -9.90625 L 2.96875 -6.578125 L 7.0625 -6.578125 C 7.289062 -6.578125 7.476562 -6.503906 7.625 -6.359375 C 7.769531 -6.222656 7.84375 -6.046875 7.84375 -5.828125 C 7.84375 -5.597656 7.769531 -5.414062 7.625 -5.28125 C 7.476562 -5.15625 7.289062 -5.09375 7.0625 -5.09375 L 2.96875 -5.09375 L 2.96875 -1.5 Z M 7.796875 -1.5 "/></g></g></g><g fill="#000000" fill-opacity="1"><g transform="translate(217.012373, 261.964027)"><g><path d="M 10.03125 -1.296875 C 10.132812 -1.222656 10.21875 -1.128906 10.28125 -1.015625 C 10.351562 -0.898438 10.390625 -0.785156 10.390625 -0.671875 C 10.390625 -0.441406 10.316406 -0.269531 10.171875 -0.15625 C 10.023438 -0.0507812 9.847656 0 9.640625 0 C 9.429688 0 9.257812 -0.0390625 9.125 -0.125 C 8.789062 -0.3125 8.519531 -0.609375 8.3125 -1.015625 C 8.113281 -1.429688 8.015625 -2.039062 8.015625 -2.84375 C 8.015625 -3.382812 7.847656 -3.785156 7.515625 -4.046875 C 7.191406 -4.304688 6.769531 -4.4375 6.25 -4.4375 L 2.96875 -4.4375 L 2.96875 -0.78125 C 2.96875 -0.550781 2.898438 -0.363281 2.765625 -0.21875 C 2.640625 -0.0703125 2.472656 0 2.265625 0 C 2.015625 0 1.796875 -0.0703125 1.609375 -0.21875 C 1.429688 -0.375 1.34375 -0.5625 1.34375 -0.78125 L 1.34375 -10.609375 C 1.34375 -10.828125 1.421875 -11.007812 1.578125 -11.15625 C 1.734375 -11.3125 1.921875 -11.390625 2.140625 -11.390625 L 6.703125 -11.390625 C 7.296875 -11.390625 7.832031 -11.242188 8.3125 -10.953125 C 8.800781 -10.671875 9.191406 -10.273438 9.484375 -9.765625 C 9.785156 -9.265625 9.9375 -8.703125 9.9375 -8.078125 C 9.9375 -7.460938 9.769531 -6.890625 9.4375 -6.359375 C 9.113281 -5.835938 8.695312 -5.445312 8.1875 -5.1875 C 8.59375 -4.988281 8.910156 -4.703125 9.140625 -4.328125 C 9.367188 -3.960938 9.5 -3.535156 9.53125 -3.046875 C 9.570312 -2.421875 9.617188 -2 9.671875 -1.78125 C 9.722656 -1.5625 9.84375 -1.398438 10.03125 -1.296875 Z M 6.671875 -5.796875 C 6.941406 -5.816406 7.195312 -5.925781 7.4375 -6.125 C 7.6875 -6.320312 7.882812 -6.582031 8.03125 -6.90625 C 8.1875 -7.238281 8.265625 -7.613281 8.265625 -8.03125 C 8.265625 -8.550781 8.101562 -8.992188 7.78125 -9.359375 C 7.46875 -9.722656 7.082031 -9.90625 6.625 -9.90625 L 2.96875 -9.90625 L 2.96875 -5.796875 Z M 6.671875 -5.796875 "/></g></g></g></svg>