<svg xmlns="http://www.w3.org/2000/svg" xmlns:xlink="http://www.w3.org/1999/xlink" width="500" zoomAndPan="magnify" viewBox="0 0 375 374.999991" height="500" preserveAspectRatio="xMidYMid meet" version="1.0"><defs><g/><clipPath id="10d4f4dae8"><path d="M 80 183 L 295.582031 183 L 295.582031 200 L 80 200 Z M 80 183 " clip-rule="nonzero"/></clipPath><clipPath id="26316e299b"><path d="M 80 118 L 295.582031 118 L 295.582031 186 L 80 186 Z M 80 118 " clip-rule="nonzero"/></clipPath><clipPath id="f51192bad6"><path d="M 153 61.195312 L 186 61.195312 L 186 135 L 153 135 Z M 153 61.195312 " clip-rule="nonzero"/></clipPath></defs><rect x="-37.5" width="450" fill="#ffffff" y="-37.499999" height="449.999989" fill-opacity="1"/><rect x="-37.5" width="450" fill="#ffffff" y="-37.499999" height="449.999989" fill-opacity="1"/><rect x="-37.5" width="450" fill="#ffffff" y="-37.499999" height="449.999989" fill-opacity="1"/><path fill="#000000" d="M 148.894531 121.347656 C 139 121.515625 128.914062 121.667969 120.308594 121.789062 C 127.867188 124.339844 136.925781 127.320312 146.492188 129.761719 C 147.179688 127.078125 147.988281 124.261719 148.894531 121.347656 Z M 148.894531 121.347656 " fill-opacity="1" fill-rule="nonzero"/><g clip-path="url(#10d4f4dae8)"><path fill="#000000" d="M 293.394531 189.566406 C 283.398438 183.953125 265.882812 183.890625 253.519531 189.429688 C 243.566406 193.890625 232.601562 193.835938 215.679688 189.25 C 207.726562 187.09375 196.648438 185.714844 186.050781 185.554688 C 174.097656 185.367188 163.757812 186.722656 156.9375 189.359375 C 144.246094 194.269531 132.621094 190.492188 117.910156 185.714844 L 117.28125 185.511719 C 103.527344 181.042969 90.375 182.9375 81.199219 190.707031 C 79.777344 191.910156 79.601562 194.042969 80.804688 195.46875 C 82.007812 196.894531 84.136719 197.070312 85.558594 195.867188 C 93.019531 189.550781 103.542969 188.152344 115.191406 191.941406 L 115.820312 192.144531 C 131.175781 197.132812 144.441406 201.445312 159.367188 195.667969 C 169.894531 191.59375 195.460938 190.78125 213.914062 195.777344 C 221.464844 197.824219 229.304688 199.515625 237.230469 199.515625 C 243.5625 199.515625 249.941406 198.4375 256.269531 195.601562 C 267.980469 190.359375 282.941406 191.445312 290.089844 195.460938 C 291.710938 196.375 293.769531 195.796875 294.683594 194.167969 C 295.597656 192.535156 295.019531 190.480469 293.394531 189.566406 Z M 293.394531 189.566406 " fill-opacity="1" fill-rule="nonzero"/></g><g clip-path="url(#26316e299b)"><path fill="#000000" d="M 85.558594 182.261719 C 93.019531 175.945312 103.542969 174.546875 115.191406 178.332031 L 115.820312 178.535156 C 131.175781 183.527344 144.441406 187.835938 159.367188 182.0625 C 169.894531 177.988281 195.460938 177.171875 213.914062 182.171875 C 221.464844 184.21875 229.304688 185.90625 237.230469 185.90625 C 243.5625 185.90625 249.941406 184.832031 256.269531 181.996094 C 267.980469 176.75 282.941406 177.839844 290.089844 181.855469 C 291.710938 182.765625 293.769531 182.1875 294.683594 180.5625 C 295.59375 178.9375 295.015625 176.878906 293.390625 175.964844 C 283.394531 170.351562 265.878906 170.289062 253.515625 175.824219 C 250.070312 177.371094 246.5 178.371094 242.609375 178.832031 C 256.257812 153.972656 283.613281 121.65625 276.683594 119.386719 C 264.917969 115.53125 227.386719 136.191406 188.671875 140.710938 C 205.355469 145.363281 220.214844 161.625 229.472656 171.757812 C 232.28125 174.835938 234.957031 177.757812 236.597656 179.121094 C 233.359375 179.0625 229.878906 178.703125 226.054688 178.019531 C 225.554688 177.472656 225.035156 176.90625 224.492188 176.316406 C 214.832031 165.746094 198.664062 148.050781 182.242188 146.320312 C 180.441406 146.132812 173.019531 146.621094 153.175781 160.914062 C 144.640625 167.0625 137.679688 172.980469 133.710938 176.738281 C 131.265625 176.195312 128.765625 175.515625 126.1875 174.738281 C 130.277344 170.257812 139.820312 162.207031 149.230469 155.429688 C 159.253906 148.210938 167.519531 143.4375 173.957031 141.136719 C 137.539062 139.195312 97.066406 117.742188 95.300781 122.863281 C 92.902344 129.816406 114.632812 151.71875 121.5625 173.289062 C 120.363281 172.90625 119.144531 172.511719 117.90625 172.105469 L 117.277344 171.902344 C 103.523438 167.4375 90.371094 169.332031 81.195312 177.101562 C 79.773438 178.304688 79.597656 180.4375 80.800781 181.863281 C 82.007812 183.289062 84.132812 183.46875 85.558594 182.261719 Z M 85.558594 182.261719 " fill-opacity="1" fill-rule="nonzero"/></g><path fill="#000000" d="M 241.582031 120.195312 C 244.1875 119.320312 246.691406 118.484375 249.082031 117.703125 C 240.589844 117.816406 231.242188 118.191406 222.132812 118.640625 C 222.90625 121.234375 223.59375 123.65625 224.171875 125.84375 C 230.316406 123.960938 236.175781 122.003906 241.582031 120.195312 Z M 241.582031 120.195312 " fill-opacity="1" fill-rule="nonzero"/><path fill="#000000" d="M 192.515625 62.316406 C 191.964844 69.382812 190.933594 84.511719 190.933594 99.347656 C 190.933594 110.976562 188.828125 125.351562 187.339844 134.0625 C 197.613281 132.90625 207.933594 130.523438 217.695312 127.753906 C 212.925781 109.664062 199.988281 73.082031 192.515625 62.316406 Z M 192.515625 62.316406 " fill-opacity="1" fill-rule="nonzero"/><g clip-path="url(#f51192bad6)"><path fill="#000000" d="M 180.40625 134.507812 C 181.851562 126.246094 184.183594 111.085938 184.183594 99.347656 C 184.183594 83.855469 185.285156 68.074219 185.835938 61.191406 C 177.078125 69.785156 159.738281 105.339844 153.0625 131.316406 C 161.746094 133.222656 170.648438 134.523438 179.074219 134.523438 C 179.519531 134.523438 179.964844 134.515625 180.40625 134.507812 Z M 180.40625 134.507812 " fill-opacity="1" fill-rule="nonzero"/></g><g fill="#000000" fill-opacity="1"><g transform="translate(37.175817, 263.238782)"><g><path d="M 38.03125 -45.359375 C 38.988281 -45.359375 39.769531 -45.066406 40.375 -44.484375 C 40.976562 -43.898438 41.28125 -43.15625 41.28125 -42.25 L 41.28125 -3.171875 C 41.226562 -2.265625 40.898438 -1.507812 40.296875 -0.90625 C 39.691406 -0.300781 38.914062 0 37.96875 0 C 37.101562 0 36.359375 -0.300781 35.734375 -0.90625 C 35.109375 -1.507812 34.796875 -2.265625 34.796875 -3.171875 L 34.796875 -19.953125 L 11.796875 -19.953125 L 11.796875 -3.171875 C 11.796875 -2.265625 11.46875 -1.507812 10.8125 -0.90625 C 10.164062 -0.300781 9.410156 0 8.546875 0 C 7.597656 0 6.832031 -0.300781 6.25 -0.90625 C 5.664062 -1.507812 5.375 -2.265625 5.375 -3.171875 L 5.375 -42.25 C 5.375 -43.113281 5.675781 -43.847656 6.28125 -44.453125 C 6.882812 -45.054688 7.664062 -45.359375 8.625 -45.359375 C 9.476562 -45.359375 10.21875 -45.054688 10.84375 -44.453125 C 11.476562 -43.847656 11.796875 -43.113281 11.796875 -42.25 L 11.796875 -25.921875 L 34.796875 -25.921875 L 34.796875 -42.25 C 34.796875 -43.113281 35.117188 -43.847656 35.765625 -44.453125 C 36.410156 -45.054688 37.164062 -45.359375 38.03125 -45.359375 Z M 38.03125 -45.359375 "/></g></g></g><g fill="#000000" fill-opacity="1"><g transform="translate(90.299595, 263.238782)"><g><path d="M 40.234375 -4.015625 C 40.367188 -3.628906 40.4375 -3.21875 40.4375 -2.78125 C 40.4375 -1.914062 40.144531 -1.203125 39.5625 -0.640625 C 38.976562 -0.0859375 38.296875 0.1875 37.515625 0.1875 C 36.910156 0.1875 36.359375 0.00390625 35.859375 -0.359375 C 35.367188 -0.722656 34.972656 -1.226562 34.671875 -1.875 L 30.65625 -11.40625 L 10.625 -11.40625 L 6.671875 -1.8125 C 6.453125 -1.164062 6.09375 -0.671875 5.59375 -0.328125 C 5.101562 0.015625 4.554688 0.1875 3.953125 0.1875 C 3.046875 0.1875 2.351562 -0.046875 1.875 -0.515625 C 1.40625 -0.992188 1.171875 -1.644531 1.171875 -2.46875 C 1.171875 -2.632812 1.210938 -2.976562 1.296875 -3.5 L 17.8125 -43.546875 C 18.113281 -44.234375 18.535156 -44.757812 19.078125 -45.125 C 19.617188 -45.5 20.234375 -45.640625 20.921875 -45.546875 C 21.578125 -45.546875 22.160156 -45.375 22.671875 -45.03125 C 23.191406 -44.6875 23.5625 -44.191406 23.78125 -43.546875 Z M 13.09375 -17.296875 L 28.1875 -17.296875 L 20.609375 -35.4375 Z M 13.09375 -17.296875 "/></g></g></g><g fill="#000000" fill-opacity="1"><g transform="translate(138.435102, 263.238782)"><g><path d="M 39.921875 -5.1875 C 40.347656 -4.882812 40.691406 -4.503906 40.953125 -4.046875 C 41.210938 -3.597656 41.34375 -3.132812 41.34375 -2.65625 C 41.34375 -1.75 41.050781 -1.078125 40.46875 -0.640625 C 39.882812 -0.210938 39.179688 0 38.359375 0 C 37.535156 0 36.84375 -0.171875 36.28125 -0.515625 C 34.988281 -1.253906 33.929688 -2.441406 33.109375 -4.078125 C 32.285156 -5.722656 31.875 -8.144531 31.875 -11.34375 C 31.875 -13.5 31.226562 -15.09375 29.9375 -16.125 C 28.644531 -17.164062 26.957031 -17.6875 24.875 -17.6875 L 11.796875 -17.6875 L 11.796875 -3.109375 C 11.796875 -2.203125 11.535156 -1.457031 11.015625 -0.875 C 10.492188 -0.289062 9.820312 0 9 0 C 8.007812 0 7.15625 -0.300781 6.4375 -0.90625 C 5.726562 -1.507812 5.375 -2.242188 5.375 -3.109375 L 5.375 -42.25 C 5.375 -43.113281 5.675781 -43.847656 6.28125 -44.453125 C 6.882812 -45.054688 7.617188 -45.359375 8.484375 -45.359375 L 26.703125 -45.359375 C 29.035156 -45.359375 31.171875 -44.785156 33.109375 -43.640625 C 35.054688 -42.492188 36.613281 -40.914062 37.78125 -38.90625 C 38.945312 -36.894531 39.53125 -34.640625 39.53125 -32.140625 C 39.53125 -29.722656 38.878906 -27.460938 37.578125 -25.359375 C 36.285156 -23.265625 34.625 -21.703125 32.59375 -20.671875 C 34.1875 -19.847656 35.445312 -18.703125 36.375 -17.234375 C 37.3125 -15.765625 37.820312 -14.054688 37.90625 -12.109375 C 38.082031 -9.648438 38.273438 -7.976562 38.484375 -7.09375 C 38.703125 -6.207031 39.179688 -5.570312 39.921875 -5.1875 Z M 26.5625 -23.0625 C 27.644531 -23.15625 28.671875 -23.585938 29.640625 -24.359375 C 30.617188 -25.140625 31.410156 -26.1875 32.015625 -27.5 C 32.617188 -28.820312 32.921875 -30.300781 32.921875 -31.9375 C 32.921875 -34.019531 32.28125 -35.78125 31 -37.21875 C 29.726562 -38.664062 28.1875 -39.390625 26.375 -39.390625 L 11.796875 -39.390625 L 11.796875 -23.0625 Z M 26.5625 -23.0625 "/></g></g></g><g fill="#000000" fill-opacity="1"><g transform="translate(189.032343, 263.238782)"><g><path d="M 31.359375 -24.75 C 33.734375 -23.925781 35.6875 -22.578125 37.21875 -20.703125 C 38.757812 -18.828125 39.53125 -16.375 39.53125 -13.34375 C 39.53125 -8.550781 38.132812 -5.128906 35.34375 -3.078125 C 32.5625 -1.023438 29.160156 0 25.140625 0 L 8.484375 0 C 7.617188 0 6.882812 -0.300781 6.28125 -0.90625 C 5.675781 -1.507812 5.375 -2.242188 5.375 -3.109375 L 5.375 -42.25 C 5.375 -43.113281 5.675781 -43.847656 6.28125 -44.453125 C 6.882812 -45.054688 7.617188 -45.359375 8.484375 -45.359375 L 25.140625 -45.359375 C 29.066406 -45.359375 32.054688 -44.382812 34.109375 -42.4375 C 36.160156 -40.5 37.1875 -37.691406 37.1875 -34.015625 C 37.1875 -31.941406 36.691406 -30.09375 35.703125 -28.46875 C 34.710938 -26.851562 33.265625 -25.613281 31.359375 -24.75 Z M 30.515625 -33.046875 C 30.515625 -35.078125 29.960938 -36.617188 28.859375 -37.671875 C 27.765625 -38.734375 26.222656 -39.265625 24.234375 -39.265625 L 11.984375 -39.265625 L 11.984375 -26.625 L 24.359375 -26.625 C 26.128906 -26.675781 27.597656 -27.25 28.765625 -28.34375 C 29.929688 -29.445312 30.515625 -31.015625 30.515625 -33.046875 Z M 25.078125 -5.96875 C 27.453125 -5.96875 29.351562 -6.582031 30.78125 -7.8125 C 32.207031 -9.039062 32.921875 -10.882812 32.921875 -13.34375 C 32.921875 -18.144531 30.195312 -20.546875 24.75 -20.546875 L 11.984375 -20.546875 L 11.984375 -5.96875 Z M 25.078125 -5.96875 "/></g></g></g><g fill="#000000" fill-opacity="1"><g transform="translate(237.880463, 263.238782)"><g><path d="M 46.59375 -22.671875 C 46.59375 -18.316406 45.648438 -14.363281 43.765625 -10.8125 C 41.890625 -7.269531 39.285156 -4.472656 35.953125 -2.421875 C 32.628906 -0.378906 28.875 0.640625 24.6875 0.640625 C 20.5 0.640625 16.738281 -0.378906 13.40625 -2.421875 C 10.082031 -4.472656 7.476562 -7.269531 5.59375 -10.8125 C 3.71875 -14.363281 2.78125 -18.316406 2.78125 -22.671875 C 2.78125 -27.035156 3.71875 -30.988281 5.59375 -34.53125 C 7.476562 -38.070312 10.082031 -40.867188 13.40625 -42.921875 C 16.738281 -44.972656 20.5 -46 24.6875 -46 C 28.875 -46 32.628906 -44.972656 35.953125 -42.921875 C 39.285156 -40.867188 41.890625 -38.070312 43.765625 -34.53125 C 45.648438 -30.988281 46.59375 -27.035156 46.59375 -22.671875 Z M 39.921875 -22.671875 C 39.921875 -25.910156 39.269531 -28.835938 37.96875 -31.453125 C 36.675781 -34.066406 34.875 -36.117188 32.5625 -37.609375 C 30.25 -39.097656 27.625 -39.84375 24.6875 -39.84375 C 21.75 -39.84375 19.125 -39.109375 16.8125 -37.640625 C 14.5 -36.171875 12.691406 -34.128906 11.390625 -31.515625 C 10.097656 -28.910156 9.453125 -25.960938 9.453125 -22.671875 C 9.453125 -19.429688 10.097656 -16.503906 11.390625 -13.890625 C 12.691406 -11.285156 14.5 -9.234375 16.8125 -7.734375 C 19.125 -6.242188 21.75 -5.5 24.6875 -5.5 C 27.625 -5.5 30.25 -6.242188 32.5625 -7.734375 C 34.875 -9.234375 36.675781 -11.285156 37.96875 -13.890625 C 39.269531 -16.503906 39.921875 -19.429688 39.921875 -22.671875 Z M 39.921875 -22.671875 "/></g></g></g><g fill="#000000" fill-opacity="1"><g transform="translate(293.789899, 263.238782)"><g><path d="M 39.921875 -5.1875 C 40.347656 -4.882812 40.691406 -4.503906 40.953125 -4.046875 C 41.210938 -3.597656 41.34375 -3.132812 41.34375 -2.65625 C 41.34375 -1.75 41.050781 -1.078125 40.46875 -0.640625 C 39.882812 -0.210938 39.179688 0 38.359375 0 C 37.535156 0 36.84375 -0.171875 36.28125 -0.515625 C 34.988281 -1.253906 33.929688 -2.441406 33.109375 -4.078125 C 32.285156 -5.722656 31.875 -8.144531 31.875 -11.34375 C 31.875 -13.5 31.226562 -15.09375 29.9375 -16.125 C 28.644531 -17.164062 26.957031 -17.6875 24.875 -17.6875 L 11.796875 -17.6875 L 11.796875 -3.109375 C 11.796875 -2.203125 11.535156 -1.457031 11.015625 -0.875 C 10.492188 -0.289062 9.820312 0 9 0 C 8.007812 0 7.15625 -0.300781 6.4375 -0.90625 C 5.726562 -1.507812 5.375 -2.242188 5.375 -3.109375 L 5.375 -42.25 C 5.375 -43.113281 5.675781 -43.847656 6.28125 -44.453125 C 6.882812 -45.054688 7.617188 -45.359375 8.484375 -45.359375 L 26.703125 -45.359375 C 29.035156 -45.359375 31.171875 -44.785156 33.109375 -43.640625 C 35.054688 -42.492188 36.613281 -40.914062 37.78125 -38.90625 C 38.945312 -36.894531 39.53125 -34.640625 39.53125 -32.140625 C 39.53125 -29.722656 38.878906 -27.460938 37.578125 -25.359375 C 36.285156 -23.265625 34.625 -21.703125 32.59375 -20.671875 C 34.1875 -19.847656 35.445312 -18.703125 36.375 -17.234375 C 37.3125 -15.765625 37.820312 -14.054688 37.90625 -12.109375 C 38.082031 -9.648438 38.273438 -7.976562 38.484375 -7.09375 C 38.703125 -6.207031 39.179688 -5.570312 39.921875 -5.1875 Z M 26.5625 -23.0625 C 27.644531 -23.15625 28.671875 -23.585938 29.640625 -24.359375 C 30.617188 -25.140625 31.410156 -26.1875 32.015625 -27.5 C 32.617188 -28.820312 32.921875 -30.300781 32.921875 -31.9375 C 32.921875 -34.019531 32.28125 -35.78125 31 -37.21875 C 29.726562 -38.664062 28.1875 -39.390625 26.375 -39.390625 L 11.796875 -39.390625 L 11.796875 -23.0625 Z M 26.5625 -23.0625 "/></g></g></g><g fill="#000000" fill-opacity="1"><g transform="translate(117.590985, 315.81899)"><g><path d="M 16.328125 -18.484375 C 16.773438 -18.242188 17 -17.867188 17 -17.359375 C 17 -17.023438 16.882812 -16.71875 16.65625 -16.4375 C 16.4375 -16.132812 16.128906 -15.984375 15.734375 -15.984375 C 15.472656 -15.984375 15.222656 -16.050781 14.984375 -16.1875 C 13.816406 -16.84375 12.5625 -17.171875 11.21875 -17.171875 C 9.8125 -17.171875 8.570312 -16.859375 7.5 -16.234375 C 6.425781 -15.617188 5.585938 -14.753906 4.984375 -13.640625 C 4.390625 -12.523438 4.09375 -11.25 4.09375 -9.8125 C 4.09375 -8.257812 4.398438 -6.921875 5.015625 -5.796875 C 5.640625 -4.679688 6.492188 -3.828125 7.578125 -3.234375 C 8.660156 -2.648438 9.875 -2.359375 11.21875 -2.359375 C 12.601562 -2.359375 13.859375 -2.691406 14.984375 -3.359375 C 15.203125 -3.472656 15.441406 -3.53125 15.703125 -3.53125 C 16.117188 -3.53125 16.445312 -3.375 16.6875 -3.0625 C 16.914062 -2.78125 17.03125 -2.476562 17.03125 -2.15625 C 17.03125 -1.9375 16.96875 -1.726562 16.84375 -1.53125 C 16.71875 -1.332031 16.550781 -1.175781 16.34375 -1.0625 C 15.613281 -0.65625 14.796875 -0.328125 13.890625 -0.078125 C 12.984375 0.160156 12.09375 0.28125 11.21875 0.28125 C 9.40625 0.28125 7.734375 -0.117188 6.203125 -0.921875 C 4.679688 -1.722656 3.46875 -2.890625 2.5625 -4.421875 C 1.65625 -5.960938 1.203125 -7.757812 1.203125 -9.8125 C 1.203125 -11.707031 1.632812 -13.414062 2.5 -14.9375 C 3.375 -16.457031 4.570312 -17.648438 6.09375 -18.515625 C 7.625 -19.390625 9.332031 -19.828125 11.21875 -19.828125 C 13.03125 -19.828125 14.734375 -19.378906 16.328125 -18.484375 Z M 16.328125 -18.484375 "/></g></g></g><g fill="#000000" fill-opacity="1"><g transform="translate(138.307225, 315.81899)"><g><path d="M 13.15625 -2.609375 C 13.550781 -2.609375 13.875 -2.484375 14.125 -2.234375 C 14.375 -1.992188 14.5 -1.679688 14.5 -1.296875 C 14.5 -0.921875 14.375 -0.609375 14.125 -0.359375 C 13.875 -0.117188 13.550781 0 13.15625 0 L 3.671875 0 C 3.273438 0 2.953125 -0.128906 2.703125 -0.390625 C 2.453125 -0.648438 2.328125 -0.96875 2.328125 -1.34375 L 2.328125 -18.28125 C 2.328125 -18.65625 2.457031 -18.972656 2.71875 -19.234375 C 2.976562 -19.492188 3.316406 -19.625 3.734375 -19.625 C 4.109375 -19.625 4.429688 -19.492188 4.703125 -19.234375 C 4.972656 -18.972656 5.109375 -18.65625 5.109375 -18.28125 L 5.109375 -2.609375 Z M 13.15625 -2.609375 "/></g></g></g><g fill="#000000" fill-opacity="1"><g transform="translate(156.556879, 315.81899)"><g><path d="M 13.4375 -2.578125 C 13.820312 -2.578125 14.140625 -2.445312 14.390625 -2.1875 C 14.648438 -1.925781 14.78125 -1.617188 14.78125 -1.265625 C 14.78125 -0.890625 14.648438 -0.582031 14.390625 -0.34375 C 14.140625 -0.113281 13.820312 0 13.4375 0 L 3.671875 0 C 3.296875 0 2.976562 -0.128906 2.71875 -0.390625 C 2.457031 -0.648438 2.328125 -0.96875 2.328125 -1.34375 L 2.328125 -18.28125 C 2.328125 -18.65625 2.457031 -18.972656 2.71875 -19.234375 C 2.976562 -19.492188 3.296875 -19.625 3.671875 -19.625 L 13.4375 -19.625 C 13.820312 -19.625 14.140625 -19.503906 14.390625 -19.265625 C 14.648438 -19.023438 14.78125 -18.707031 14.78125 -18.3125 C 14.78125 -17.9375 14.648438 -17.628906 14.390625 -17.390625 C 14.140625 -17.160156 13.820312 -17.046875 13.4375 -17.046875 L 5.109375 -17.046875 L 5.109375 -11.328125 L 12.171875 -11.328125 C 12.566406 -11.328125 12.890625 -11.207031 13.140625 -10.96875 C 13.390625 -10.726562 13.515625 -10.421875 13.515625 -10.046875 C 13.515625 -9.648438 13.390625 -9.335938 13.140625 -9.109375 C 12.890625 -8.890625 12.566406 -8.78125 12.171875 -8.78125 L 5.109375 -8.78125 L 5.109375 -2.578125 Z M 13.4375 -2.578125 "/></g></g></g><g fill="#000000" fill-opacity="1"><g transform="translate(175.367118, 315.81899)"><g><path d="M 17.421875 -1.734375 C 17.472656 -1.566406 17.5 -1.390625 17.5 -1.203125 C 17.5 -0.828125 17.375 -0.519531 17.125 -0.28125 C 16.875 -0.0390625 16.578125 0.078125 16.234375 0.078125 C 15.972656 0.078125 15.734375 0 15.515625 -0.15625 C 15.304688 -0.3125 15.132812 -0.53125 15 -0.8125 L 13.265625 -4.9375 L 4.59375 -4.9375 L 2.890625 -0.78125 C 2.796875 -0.5 2.640625 -0.285156 2.421875 -0.140625 C 2.210938 0.00390625 1.972656 0.078125 1.703125 0.078125 C 1.316406 0.078125 1.019531 -0.0195312 0.8125 -0.21875 C 0.601562 -0.425781 0.5 -0.707031 0.5 -1.0625 C 0.5 -1.132812 0.519531 -1.285156 0.5625 -1.515625 L 7.71875 -18.84375 C 7.84375 -19.144531 8.019531 -19.375 8.25 -19.53125 C 8.488281 -19.6875 8.757812 -19.75 9.0625 -19.71875 C 9.34375 -19.71875 9.59375 -19.640625 9.8125 -19.484375 C 10.039062 -19.335938 10.203125 -19.125 10.296875 -18.84375 Z M 5.671875 -7.484375 L 12.203125 -7.484375 L 8.921875 -15.34375 Z M 5.671875 -7.484375 "/></g></g></g><g fill="#000000" fill-opacity="1"><g transform="translate(196.195491, 315.81899)"><g><path d="M 17 -19.625 C 17.351562 -19.625 17.640625 -19.507812 17.859375 -19.28125 C 18.085938 -19.050781 18.203125 -18.757812 18.203125 -18.40625 L 18.203125 -1.375 C 18.203125 -0.976562 18.070312 -0.648438 17.8125 -0.390625 C 17.5625 -0.128906 17.242188 0 16.859375 0 C 16.648438 0 16.445312 -0.03125 16.25 -0.09375 C 16.050781 -0.164062 15.898438 -0.265625 15.796875 -0.390625 L 4.765625 -14.75 L 4.765625 -1.234375 C 4.765625 -0.878906 4.644531 -0.582031 4.40625 -0.34375 C 4.175781 -0.113281 3.882812 0 3.53125 0 C 3.175781 0 2.882812 -0.113281 2.65625 -0.34375 C 2.4375 -0.582031 2.328125 -0.878906 2.328125 -1.234375 L 2.328125 -18.28125 C 2.328125 -18.675781 2.453125 -19 2.703125 -19.25 C 2.953125 -19.5 3.265625 -19.625 3.640625 -19.625 C 3.867188 -19.625 4.082031 -19.582031 4.28125 -19.5 C 4.488281 -19.414062 4.648438 -19.300781 4.765625 -19.15625 L 15.765625 -4.765625 L 15.765625 -18.40625 C 15.765625 -18.757812 15.878906 -19.050781 16.109375 -19.28125 C 16.347656 -19.507812 16.644531 -19.625 17 -19.625 Z M 17 -19.625 "/></g></g></g><g fill="#000000" fill-opacity="1"><g transform="translate(219.546514, 315.81899)"><g><path d="M 13.4375 -2.578125 C 13.820312 -2.578125 14.140625 -2.445312 14.390625 -2.1875 C 14.648438 -1.925781 14.78125 -1.617188 14.78125 -1.265625 C 14.78125 -0.890625 14.648438 -0.582031 14.390625 -0.34375 C 14.140625 -0.113281 13.820312 0 13.4375 0 L 3.671875 0 C 3.296875 0 2.976562 -0.128906 2.71875 -0.390625 C 2.457031 -0.648438 2.328125 -0.96875 2.328125 -1.34375 L 2.328125 -18.28125 C 2.328125 -18.65625 2.457031 -18.972656 2.71875 -19.234375 C 2.976562 -19.492188 3.296875 -19.625 3.671875 -19.625 L 13.4375 -19.625 C 13.820312 -19.625 14.140625 -19.503906 14.390625 -19.265625 C 14.648438 -19.023438 14.78125 -18.707031 14.78125 -18.3125 C 14.78125 -17.9375 14.648438 -17.628906 14.390625 -17.390625 C 14.140625 -17.160156 13.820312 -17.046875 13.4375 -17.046875 L 5.109375 -17.046875 L 5.109375 -11.328125 L 12.171875 -11.328125 C 12.566406 -11.328125 12.890625 -11.207031 13.140625 -10.96875 C 13.390625 -10.726562 13.515625 -10.421875 13.515625 -10.046875 C 13.515625 -9.648438 13.390625 -9.335938 13.140625 -9.109375 C 12.890625 -8.890625 12.566406 -8.78125 12.171875 -8.78125 L 5.109375 -8.78125 L 5.109375 -2.578125 Z M 13.4375 -2.578125 "/></g></g></g><g fill="#000000" fill-opacity="1"><g transform="translate(238.356754, 315.81899)"><g><path d="M 17.28125 -2.25 C 17.46875 -2.113281 17.613281 -1.945312 17.71875 -1.75 C 17.832031 -1.550781 17.890625 -1.351562 17.890625 -1.15625 C 17.890625 -0.757812 17.765625 -0.46875 17.515625 -0.28125 C 17.265625 -0.09375 16.960938 0 16.609375 0 C 16.253906 0 15.953125 -0.0703125 15.703125 -0.21875 C 15.140625 -0.539062 14.679688 -1.054688 14.328125 -1.765625 C 13.972656 -2.472656 13.796875 -3.519531 13.796875 -4.90625 C 13.796875 -5.84375 13.515625 -6.535156 12.953125 -6.984375 C 12.390625 -7.429688 11.660156 -7.65625 10.765625 -7.65625 L 5.109375 -7.65625 L 5.109375 -1.34375 C 5.109375 -0.945312 4.992188 -0.625 4.765625 -0.375 C 4.546875 -0.125 4.257812 0 3.90625 0 C 3.46875 0 3.09375 -0.128906 2.78125 -0.390625 C 2.476562 -0.648438 2.328125 -0.96875 2.328125 -1.34375 L 2.328125 -18.28125 C 2.328125 -18.65625 2.457031 -18.972656 2.71875 -19.234375 C 2.976562 -19.492188 3.296875 -19.625 3.671875 -19.625 L 11.5625 -19.625 C 12.5625 -19.625 13.484375 -19.375 14.328125 -18.875 C 15.171875 -18.382812 15.84375 -17.703125 16.34375 -16.828125 C 16.851562 -15.960938 17.109375 -14.988281 17.109375 -13.90625 C 17.109375 -12.863281 16.828125 -11.890625 16.265625 -10.984375 C 15.703125 -10.078125 14.984375 -9.398438 14.109375 -8.953125 C 14.796875 -8.585938 15.335938 -8.085938 15.734375 -7.453125 C 16.140625 -6.816406 16.363281 -6.082031 16.40625 -5.25 C 16.476562 -4.175781 16.5625 -3.445312 16.65625 -3.0625 C 16.75 -2.6875 16.957031 -2.414062 17.28125 -2.25 Z M 11.5 -9.984375 C 11.96875 -10.023438 12.410156 -10.210938 12.828125 -10.546875 C 13.253906 -10.878906 13.597656 -11.332031 13.859375 -11.90625 C 14.117188 -12.476562 14.25 -13.117188 14.25 -13.828125 C 14.25 -14.722656 13.972656 -15.484375 13.421875 -16.109375 C 12.867188 -16.734375 12.203125 -17.046875 11.421875 -17.046875 L 5.109375 -17.046875 L 5.109375 -9.984375 Z M 11.5 -9.984375 "/></g></g></g></svg>